<?xml version="1.0" standalone="no"?>
<!DOCTYPE svg PUBLIC "-//W3C//DTD SVG 20010904//EN"
 "http://www.w3.org/TR/2001/REC-SVG-20010904/DTD/svg10.dtd">
<svg version="1.0" xmlns="http://www.w3.org/2000/svg"
 width="285.000000pt" height="285.000000pt" viewBox="0 0 285.000000 285.000000"
 preserveAspectRatio="xMidYMid meet">
<metadata>
Created by potrace 1.14, written by Peter Selinger 2001-2017
</metadata>
<g transform="translate(0.000000,285.000000) scale(0.100000,-0.100000)"
fill="#000000" stroke="none">
<path d="M1368 2835 c-1 -1 -25 -5 -53 -8 -76 -9 -235 -56 -235 -69 0 -5 -7
-8 -15 -8 -9 0 -28 -8 -43 -18 -15 -11 -45 -31 -67 -45 -22 -15 -55 -41 -74
-57 -19 -17 -46 -33 -60 -36 -137 -27 -231 -62 -307 -114 -25 -16 -47 -30 -50
-30 -2 0 -18 -12 -36 -27 -201 -177 -297 -373 -305 -620 -3 -100 -6 -119 -32
-173 -32 -65 -59 -141 -67 -187 -3 -15 -9 -44 -13 -65 -5 -20 -7 -80 -6 -135
7 -254 125 -487 327 -640 35 -27 56 -54 78 -100 98 -210 275 -368 495 -442
159 -53 347 -53 515 1 72 23 176 72 197 94 8 8 19 14 25 14 24 0 195 188 235
260 175 310 155 661 -54 968 -43 62 -176 224 -288 350 -140 157 -1 34 185
-164 298 -318 404 -539 396 -829 -3 -100 -28 -238 -55 -293 -101 -213 -159
-304 -268 -420 -22 -23 -20 -23 52 -8 220 46 403 164 523 340 27 39 63 101 80
138 18 38 36 68 40 68 27 0 212 183 212 210 0 6 4 10 8 10 17 0 94 174 117
263 19 77 23 112 20 212 -1 66 -6 134 -9 150 -13 58 -50 161 -77 214 -24 47
-28 65 -28 140 1 217 -80 416 -233 573 -120 123 -273 207 -436 238 -40 7 -68
22 -115 60 -105 85 -239 147 -370 171 -60 10 -202 21 -209 14z"/>
</g>
</svg>
